<?xml version="1.0" ?><!DOCTYPE svg  PUBLIC '-//W3C//DTD SVG 1.1//EN'  'http://www.w3.org/Graphics/SVG/1.1/DTD/svg11.dtd'><svg style="enable-background:new 0 0 35.999 36.005;" version="1.1" viewBox="0 0 35.999 36.005" xml:space="preserve" xmlns="http://www.w3.org/2000/svg" xmlns:xlink="http://www.w3.org/1999/xlink"><g id="Properties"><g id="Layer_12"><g id="ClipView_9"><path d="M0,0v36.005h35.999V0H0z" marker-end="none" marker-start="none" style="fill:none;"/><g><defs><rect height="36.005" id="SVGID_1_" width="35.999"/></defs><clipPath id="SVGID_2_"><use style="overflow:visible;" xlink:href="#SVGID_1_"/></clipPath><g style="clip-path:url(#SVGID_2_);"><g id="Group_24"><g id="Group_25"><linearGradient gradientTransform="matrix(6.123234e-017 -1 1 6.123234e-017 362.666 50.208)" gradientUnits="userSpaceOnUse" id="SVGID_3_" x1="18.704" x2="42.329" y1="-344.666" y2="-344.666"><stop offset="0" style="stop-color:#57769A"/><stop offset="1" style="stop-color:#7299BF"/></linearGradient><path d="M5.25,2.255v31.5h25.5v-31.5H5.25z" marker-end="none" marker-start="none" style="fill:url(#SVGID_3_);"/><linearGradient gradientTransform="matrix(6.123234e-017 1 -1 6.123234e-017 444.447 32.083)" gradientUnits="userSpaceOnUse" id="SVGID_4_" x1="-28.704" x2="-0.579" y1="426.447" y2="426.447"><stop offset="0" style="stop-color:#FFFFFF"/><stop offset="1" style="stop-color:#D6E6F6"/></linearGradient><path d="M6,33.005v-30h24v30H6z" marker-end="none" marker-start="none" style="fill:url(#SVGID_4_);"/></g><defs><filter filterUnits="userSpaceOnUse" height="29.25" id="Adobe_OpacityMaskFilter" width="0.75" x="6" y="3.755"><feColorMatrix type="matrix" values="1 0 0 0 0  0 1 0 0 0  0 0 1 0 0  0 0 0 1 0"/></filter></defs><mask height="29.25" id="TranspMask_11_1_" maskUnits="userSpaceOnUse" width="0.75" x="6" y="3.755"><linearGradient gradientTransform="matrix(-0.0247 0.9997 -0.9988 -0.0599 434.3293 49.0118)" gradientUnits="userSpaceOnUse" id="SVGID_5_" x1="-293.7044" x2="-263.2754" y1="415.5727" y2="415.5727"><stop offset="0" style="stop-color:#FFFFFF"/><stop offset="1" style="stop-color:#000000"/></linearGradient><rect height="784.45" style="fill:url(#SVGID_5_);filter:url(#Adobe_OpacityMaskFilter);" width="576.899" x="-269.075" y="-373.37"/></mask><path d="M6,3.755v29.25h0.75V3.755        H6z" marker-end="none" marker-start="none" style="mask:url(#TranspMask_11_1_);fill:#FFFFFF;"/></g><path d="M21.784,9.347       l2.38,2.381l3.571-5.951" style="fill:none;stroke:#0C3670;stroke-width:1.5;stroke-linejoin:bevel;stroke-miterlimit:79.8403;"/><path d="M8.249,8.255v0.751H19.5V8.255H8.249z" marker-end="none" marker-start="none" style="fill:#7299BF;"/><path d="M8.249,9.754v0.751H16.5V9.754H8.249z" marker-end="none" marker-start="none" style="fill:#7299BF;"/><path d="M21.784,18.347       l2.38,2.381l3.571-5.951" style="fill:none;stroke:#0C3670;stroke-width:1.5;stroke-linejoin:bevel;stroke-miterlimit:79.8403;"/><path d="M8.249,17.255v0.751H19.5v-0.751H8.249z" marker-end="none" marker-start="none" style="fill:#7299BF;"/><path d="M8.249,18.754v0.751H16.5v-0.751H8.249z" marker-end="none" marker-start="none" style="fill:#7299BF;"/><path d="M21.784,27.347       l2.38,2.381l3.571-5.951" style="fill:none;stroke:#0C3670;stroke-width:1.5;stroke-linejoin:bevel;stroke-miterlimit:79.8403;"/><path d="M8.249,26.255v0.751H19.5v-0.751H8.249z" marker-end="none" marker-start="none" style="fill:#7299BF;"/><path d="M8.249,27.754v0.751H16.5v-0.751H8.249z" marker-end="none" marker-start="none" style="fill:#7299BF;"/></g></g></g></g></g><g id="Layer_1"/></svg>